# xmcd CD database file generated by Grip 2.6
# 
# Track frame offsets:
#       150
#       11702
#       26612
#       43420
#       62654
#       79647
#       99585
#       114769
#       128570
#       144877
#       159245
# 
# Disc length: 2353 seconds
# 
# Revision: 3
# Processed by: cddbd v1.4b41PL1 Copyright (c) Steve Scherf et al.
# Submitted via: Grip 2.6
# 
DISCID=7f092f0b
DTITLE=Dan Dodson - Park Up To The Wall
DYEAR=1900
DGENRE=
TTITLE0=Dream On
TTITLE1=Fire Down In My Bones
TTITLE2=Run Baby Run
TTITLE3=Loving Cup
TTITLE4=Wheels Keep On Turning
TTITLE5=Heart of Stone
TTITLE6=Why Don't We Love a Little Longer, (Columbine)
TTITLE7=Big Boss Man
TTITLE8=Going Down Again
TTITLE9=Sweet Little Angel
TTITLE10=World of Living
EXTD=
EXTT0=
EXTT1=
EXTT2=
EXTT3=
EXTT4=
EXTT5=
EXTT6=
EXTT7=
EXTT8=
EXTT9=
EXTT10=
PLAYORDER=
